<svg xmlns="http://www.w3.org/2000/svg" viewBox="0 0 640 640">
  <path fill="#FFFFFF" d="
    M125 32
    H515
    C570 32 608 70 608 125
    V515
    C608 570 570 608 515 608
    H125
    C70 608 32 570 32 515
    V125
    C32 70 70 32 125 32
    Z

    M270 365
    V580
    H370
    V365
    H450
    L470 275
    H370
    V235
    C370 180 390 160 440 160
    C450 160 465 161 472 162
    V80
    C460 77 430 74 410 74
    C300 74 270 120 270 225
    V275
    H210
    V365
    H270
    Z
  "/>
</svg>
